<?xml version="1.0" standalone="no"?>
<!DOCTYPE svg PUBLIC "-//W3C//DTD SVG 20010904//EN"
 "http://www.w3.org/TR/2001/REC-SVG-20010904/DTD/svg10.dtd">
<svg version="1.0" xmlns="http://www.w3.org/2000/svg"
 width="2000.000000pt" height="1500.000000pt" viewBox="0 0 2000.000000 1500.000000"
 preserveAspectRatio="xMidYMid meet">

<g transform="translate(0.000000,1500.000000) scale(0.100000,-0.100000)"
fill="#000000" stroke="none">
<path d="M3450 13040 c0 -5 12 -10 28 -9 24 0 25 1 7 9 -27 12 -35 12 -35 0z"/>
<path d="M10767 10763 c-14 -15 -22 -16 -48 -6 -35 13 -59 6 -81 -25 -23 -32
-75 -62 -94 -55 -11 4 -15 3 -10 -5 3 -6 -3 -13 -14 -17 -11 -3 -20 -11 -20
-16 0 -5 -7 -9 -15 -9 -8 0 -15 5 -15 11 0 6 -14 0 -31 -12 -20 -14 -27 -24
-19 -29 13 -8 -1 -21 -47 -41 -26 -11 -30 -16 -20 -28 10 -12 8 -14 -11 -9
-12 4 -20 2 -16 -3 3 -6 -9 -9 -28 -7 -19 1 -39 -1 -45 -5 -6 -4 -14 -3 -18 3
-3 6 -23 18 -43 28 -20 10 -77 42 -126 70 -49 29 -97 52 -107 52 -10 0 -30 5
-45 12 -22 10 -28 10 -39 -5 -9 -12 -29 -19 -60 -21 -45 -3 -75 -22 -75 -48 0
-4 -7 -8 -16 -8 -8 0 -13 -3 -11 -7 3 -5 -7 -17 -21 -27 -14 -11 -22 -14 -18
-8 4 7 5 12 1 12 -3 0 -10 -10 -15 -22 -7 -18 -9 -19 -9 -5 -1 9 -9 17 -18 17
-13 0 -14 -3 -5 -12 14 -14 15 -28 3 -47 -8 -12 -12 -13 -26 -1 -14 12 -15 10
-11 -13 3 -16 -1 -33 -9 -41 -10 -9 -11 -16 -3 -24 8 -8 5 -9 -11 -5 -17 4
-21 1 -21 -19 0 -13 6 -30 13 -38 10 -12 9 -12 -5 -1 -16 12 -18 11 -18 -4 0
-11 -5 -15 -14 -12 -10 4 -13 1 -9 -9 3 -7 0 -14 -7 -14 -6 0 -8 -4 -5 -10 3
-5 3 -16 -2 -22 -11 -19 -13 -39 -2 -32 5 3 9 1 9 -4 0 -6 -12 -13 -26 -16
-25 -7 -26 -8 -8 -21 17 -13 16 -14 -16 -10 -27 4 -30 3 -15 -4 16 -8 12 -10
-23 -10 -24 -1 -41 -4 -39 -8 3 -5 -43 -7 -101 -6 -165 3 -181 3 -236 -8 -28
-6 -60 -11 -71 -12 -24 -2 -42 -24 -47 -57 -1 -14 -7 -25 -13 -24 -5 1 -15 -6
-21 -14 -6 -8 -16 -12 -22 -9 -6 5 -8 -1 -5 -13 3 -12 2 -20 -3 -19 -5 1 -16
1 -24 0 -13 -1 -13 -3 -1 -10 8 -5 21 -7 30 -5 9 2 3 -2 -14 -10 -23 -12 -25
-15 -11 -16 19 0 19 -1 -2 -21 -13 -12 -19 -25 -15 -32 4 -7 8 -19 8 -27 0 -8
4 -21 9 -29 6 -9 5 -12 -1 -8 -6 4 -10 -4 -10 -20 0 -24 1 -25 12 -10 6 9 15
14 18 10 4 -3 -3 -14 -14 -24 -13 -11 -16 -20 -9 -24 6 -4 2 -13 -12 -24 -21
-18 -21 -19 -5 -54 19 -39 21 -51 9 -43 -4 2 -13 -3 -19 -13 -12 -19 7 -57 22
-43 5 4 5 -1 2 -11 -4 -10 -7 -21 -7 -23 0 -3 -4 -2 -10 1 -5 3 -10 -1 -10
-10 0 -10 -5 -13 -12 -9 -7 5 -8 3 -3 -5 4 -7 17 -10 29 -7 19 5 19 3 -4 -16
-14 -11 -24 -27 -22 -34 2 -9 -3 -12 -13 -8 -8 3 -15 1 -15 -5 0 -6 -5 -11
-11 -11 -5 0 -7 5 -3 12 4 7 3 8 -4 4 -7 -4 -12 -14 -12 -23 0 -9 -6 -13 -14
-10 -11 4 -13 1 -9 -11 3 -9 3 -14 -2 -10 -4 4 -14 3 -22 -3 -10 -9 -13 -8
-13 0 0 7 -5 9 -10 6 -6 -4 -7 -12 -3 -18 4 -7 -2 -5 -13 3 -10 8 -16 10 -12
6 10 -12 -41 -39 -69 -38 -13 1 -23 -3 -23 -8 0 -6 -8 -10 -19 -10 -10 0 -24
-7 -31 -15 -7 -9 -21 -13 -31 -10 -9 3 -21 0 -25 -6 -5 -8 -3 -9 6 -4 8 5 11
4 6 -3 -4 -6 -13 -9 -20 -6 -7 3 -19 -2 -26 -11 -7 -8 -19 -15 -27 -15 -8 0
-11 -4 -8 -10 3 -6 -1 -7 -10 -4 -12 5 -15 1 -11 -18 3 -16 -1 -25 -10 -26 -8
-1 -21 -3 -30 -4 -15 -1 -14 -3 2 -15 11 -8 13 -13 5 -13 -8 0 -11 -8 -8 -19
3 -12 -1 -22 -11 -26 -13 -5 -12 -8 4 -21 10 -9 13 -13 7 -9 -16 8 -17 -7 -1
-23 15 -15 42 -16 33 -2 -4 6 -11 7 -17 4 -7 -4 -8 -2 -4 5 13 20 38 -7 26
-29 -5 -9 -6 -21 -2 -25 4 -5 1 -5 -6 -1 -7 4 -10 12 -7 17 4 5 -4 9 -16 9
-21 0 -21 -1 -6 -18 10 -10 14 -22 10 -26 -4 -4 0 -4 10 0 12 4 17 1 17 -10 0
-9 5 -16 12 -16 6 0 3 -7 -8 -15 -18 -14 -18 -15 9 -11 15 3 25 1 22 -5 -4 -5
-13 -9 -20 -9 -9 0 -12 -6 -9 -15 5 -13 9 -13 22 -3 12 10 14 10 8 1 -4 -8 -2
-13 5 -13 9 0 9 -3 0 -14 -6 -7 -8 -22 -4 -31 5 -14 3 -16 -7 -10 -9 5 -11 4
-6 -4 4 -6 11 -9 16 -6 4 3 11 -3 14 -12 6 -15 8 -15 16 -3 6 8 10 10 10 5 0
-6 -5 -16 -12 -23 -9 -9 -14 -7 -24 6 -8 9 -14 12 -14 6 0 -6 10 -19 22 -30
12 -10 18 -13 13 -5 -5 9 -4 12 3 7 6 -4 8 -14 5 -23 -5 -12 -3 -14 7 -8 9 5
11 4 6 -3 -13 -21 -16 -53 -4 -46 7 5 9 -2 5 -22 -3 -16 -4 -23 -1 -16 9 21
20 13 22 -15 1 -22 0 -24 -8 -13 -5 8 -10 12 -11 8 -1 -5 -2 -11 -3 -15 -1 -5
-5 -14 -10 -21 -5 -9 -1 -15 13 -19 24 -6 28 -35 6 -53 -8 -7 -15 -9 -15 -4 0
4 -6 0 -13 -11 -8 -10 -19 -15 -25 -11 -7 4 -12 2 -12 -3 0 -6 5 -11 11 -11 6
0 9 -6 6 -12 -2 -7 -11 -12 -18 -10 -8 2 -11 0 -7 -4 4 -4 3 -13 -3 -21 -6 -7
-8 -13 -4 -13 4 0 -4 -9 -18 -20 -14 -11 -30 -20 -35 -20 -6 0 -8 -8 -5 -19 3
-10 0 -22 -6 -25 -7 -4 -8 -1 -5 8 4 11 0 16 -10 16 -9 0 -16 -7 -16 -15 0
-13 -12 -19 -32 -16 -4 0 -4 -7 -1 -16 4 -11 3 -14 -5 -9 -7 4 -12 2 -12 -4 0
-6 -4 -8 -10 -5 -6 3 -7 -1 -4 -9 4 -10 1 -16 -7 -16 -11 0 -11 -3 1 -10 13
-8 12 -10 -3 -10 -10 0 -16 -4 -13 -9 3 -4 -1 -17 -10 -27 -14 -18 -15 -18 -5
3 8 16 7 22 -5 27 -9 3 -12 2 -9 -4 4 -6 -4 -23 -16 -38 l-21 -27 6 25 c6 22
5 22 -4 7 -9 -15 -8 -23 6 -38 10 -11 14 -20 9 -19 -31 6 -56 -22 -33 -36 6
-4 8 -3 4 4 -3 6 -2 13 3 17 6 3 8 -4 6 -16 -3 -13 1 -29 7 -36 6 -7 8 -16 4
-20 -3 -3 -6 0 -6 8 0 12 -2 11 -11 -1 -9 -13 -10 -12 -5 2 3 10 1 20 -4 23
-18 11 -10 -26 11 -56 11 -16 22 -37 23 -47 2 -9 13 -18 24 -20 12 -2 22 -10
22 -18 0 -8 5 -12 10 -9 9 6 14 -8 11 -27 0 -5 7 -8 17 -8 14 0 15 -2 2 -10
-13 -8 -12 -10 3 -10 10 0 17 -8 17 -19 0 -20 25 -36 49 -32 13 2 13 0 2 -13
-12 -14 -11 -16 5 -16 14 0 16 -2 6 -9 -10 -6 -5 -11 18 -19 19 -7 29 -16 25
-22 -4 -6 1 -18 11 -26 11 -9 12 -12 4 -8 -8 4 -4 -5 9 -19 25 -28 42 -38 22
-13 -9 11 -9 16 0 22 7 4 9 3 5 -4 -3 -6 -1 -14 5 -17 6 -4 8 -18 5 -31 -4
-16 -2 -24 6 -24 10 0 10 -2 -1 -9 -9 -6 -10 -11 -2 -15 6 -4 16 -4 23 0 7 4
8 3 4 -4 -4 -7 -17 -12 -29 -13 -21 0 -21 -1 -2 -9 11 -5 14 -9 8 -9 -7 -1
-13 -6 -13 -11 0 -7 6 -7 20 0 17 9 20 8 20 -11 0 -15 -5 -19 -15 -15 -9 3
-15 0 -15 -10 0 -8 5 -12 10 -9 15 9 12 -15 -4 -31 -13 -12 -15 -12 -19 4 -4
13 -5 12 -6 -5 0 -12 5 -24 12 -27 6 -4 2 -4 -11 -2 -19 4 -22 1 -17 -15 4
-11 2 -19 -4 -19 -6 0 -11 -4 -11 -10 0 -5 8 -6 18 -3 14 6 15 4 5 -9 -7 -8
-10 -18 -6 -21 3 -4 1 -7 -6 -7 -9 0 -9 -5 -1 -20 9 -16 8 -20 -5 -20 -9 0
-15 -9 -16 -22 0 -22 -1 -22 -9 -3 -6 13 -9 15 -9 5 -1 -8 -10 -21 -21 -28
-11 -7 -20 -18 -20 -25 0 -9 3 -8 9 2 7 10 10 11 16 1 5 -8 1 -18 -8 -25 -17
-12 -24 -31 -9 -21 4 2 8 -4 9 -14 1 -10 -5 -21 -13 -24 -8 -3 -13 -2 -10 2 3
5 -1 9 -9 9 -12 0 -12 -5 0 -34 8 -20 10 -33 4 -33 -6 0 -8 -4 -5 -9 10 -15
-6 -42 -21 -37 -8 4 -11 1 -7 -5 3 -6 15 -9 25 -6 21 6 26 -8 7 -16 -10 -4
-10 -6 0 -6 6 -1 12 -6 12 -12 0 -5 -4 -8 -8 -5 -5 3 -9 -1 -9 -9 0 -8 4 -12
8 -10 3 3 9 -5 12 -16 3 -11 15 -23 26 -26 12 -3 21 -9 21 -14 0 -5 -8 -6 -17
-3 -10 3 -4 -3 12 -12 17 -10 33 -17 38 -16 4 1 7 -5 7 -14 0 -8 4 -13 9 -9 5
3 12 1 16 -5 4 -6 11 -8 16 -5 5 4 9 -1 9 -9 0 -8 11 -16 25 -18 14 -2 26 -7
27 -13 2 -11 44 -35 62 -35 6 0 28 -11 47 -25 20 -13 39 -22 42 -18 3 3 13 -2
22 -11 12 -12 13 -16 3 -17 -7 0 3 -7 22 -14 19 -7 29 -14 21 -14 -11 -1 -10
-5 5 -17 10 -8 13 -12 5 -8 -9 5 -12 3 -7 -5 4 -6 11 -9 15 -7 13 8 30 -10 33
-34 2 -20 -1 -25 -17 -23 -11 1 -14 0 -7 -3 6 -3 9 -11 5 -17 -3 -7 -3 -9 2
-5 10 9 35 -10 35 -26 0 -7 -3 -6 -9 2 -6 10 -11 9 -22 -4 -10 -13 -10 -16 -1
-10 10 6 11 1 6 -18 -4 -17 -2 -26 6 -26 6 0 10 -6 8 -12 -3 -7 2 -20 11 -28
13 -13 12 -15 -9 -18 -18 -3 -20 -6 -9 -13 11 -7 9 -9 -8 -9 -24 0 -26 -16 -5
-38 7 -8 10 -18 7 -23 -4 -5 2 -6 12 -3 15 5 16 4 3 -5 -8 -6 -11 -11 -6 -11
6 0 5 -5 -2 -12 -7 -7 -12 -20 -12 -31 0 -12 -4 -16 -12 -11 -10 5 -10 4 -1
-6 15 -16 34 -4 26 18 -7 18 -5 17 17 -11 10 -14 11 -17 0 -15 -7 2 -15 -3
-18 -11 -2 -8 0 -11 5 -8 5 3 10 0 10 -8 0 -17 -13 -20 -22 -5 -14 22 -23 8
-12 -19 6 -17 15 -28 19 -25 4 3 8 1 8 -5 0 -5 -6 -12 -12 -14 -8 -4 -7 -6 4
-6 9 -1 18 2 21 7 2 4 2 1 1 -5 -2 -7 1 -13 6 -13 6 0 10 -7 10 -16 0 -8 5
-12 10 -9 6 4 10 3 9 -2 -3 -18 2 -33 10 -33 5 0 23 -14 40 -31 17 -17 35 -28
41 -24 5 3 10 -1 10 -9 0 -9 3 -15 8 -14 4 1 17 -3 30 -10 12 -7 44 -15 70
-18 81 -7 186 -15 213 -14 15 0 32 -7 39 -15 7 -8 19 -15 26 -15 8 0 14 -5 14
-11 0 -6 6 -9 14 -6 17 7 36 -11 36 -34 0 -10 12 -27 28 -38 16 -12 21 -20 13
-21 -11 0 -10 -4 4 -13 12 -10 14 -16 7 -21 -7 -4 -12 -14 -12 -23 0 -14 2
-14 19 1 12 11 21 14 26 7 3 -6 1 -11 -6 -11 -7 0 -9 -9 -5 -27 4 -16 7 -33 8
-40 1 -7 5 -10 10 -7 5 3 6 9 3 14 -3 5 -1 11 4 15 6 3 8 -4 6 -17 -3 -13 -9
-24 -15 -26 -5 -2 -10 -8 -10 -14 0 -6 9 -3 19 6 23 21 33 4 19 -33 -7 -19 -5
-22 7 -18 8 4 14 1 12 -5 -1 -7 5 -12 13 -13 8 0 14 -8 14 -18 -1 -13 4 -15
21 -11 13 3 26 0 30 -7 6 -8 4 -10 -6 -5 -8 4 -3 -2 11 -14 14 -12 18 -19 10
-15 -12 5 -12 4 1 -7 8 -7 18 -21 22 -30 3 -10 15 -18 24 -18 10 0 30 -8 43
-17 43 -30 122 -22 215 22 132 61 154 68 223 68 17 0 32 4 32 9 0 5 5 6 10 3
6 -4 7 -11 4 -17 -5 -7 -2 -8 5 -4 7 5 19 0 27 -10 9 -11 12 -13 8 -5 -5 9 2
7 18 -5 15 -10 25 -23 25 -29 -1 -5 4 -9 11 -7 8 1 11 -2 7 -8 -3 -5 -3 -15 1
-21 4 -8 9 -7 14 2 6 9 13 2 24 -22 11 -24 14 -27 10 -9 -4 21 -3 22 6 8 6
-10 18 -18 27 -18 8 0 24 -11 35 -25 11 -14 27 -25 37 -25 9 0 35 -17 57 -38
58 -56 109 -67 191 -40 35 11 63 24 63 29 0 9 359 419 368 419 4 0 -23 -36
-39 -50 -15 -14 -61 -81 -58 -85 3 -2 16 -5 31 -7 14 -2 33 -10 42 -17 9 -8
19 -11 23 -8 3 4 12 2 20 -4 7 -6 13 -9 13 -5 0 4 15 -1 33 -11 36 -19 39 -20
82 -29 17 -3 39 -9 50 -14 87 -37 139 -38 203 -6 26 13 58 26 72 29 21 6 32
25 73 134 124 328 121 322 142 323 313 11 365 21 426 79 17 17 43 31 56 31 13
0 26 6 28 13 2 6 8 136 13 288 6 178 13 283 21 298 8 14 14 94 17 219 3 108 7
211 10 227 2 17 21 48 42 70 20 22 71 79 112 125 41 47 78 87 82 90 16 13 18
62 4 111 -8 30 -34 119 -56 198 l-40 144 55 141 c31 77 65 160 76 184 11 26
19 64 19 98 0 31 8 76 19 102 33 84 81 213 81 220 0 8 -58 45 -75 48 -9 2 -91
41 -216 103 -31 15 -49 31 -49 42 0 16 -48 59 -65 59 -3 0 -31 11 -61 25 -30
14 -59 25 -63 25 -16 0 -48 62 -75 144 -26 79 -31 106 -19 106 3 0 29 -11 57
-24 106 -50 143 -66 151 -66 4 0 20 -10 37 -21 20 -15 33 -18 40 -11 7 7 28 1
65 -19 31 -16 58 -28 60 -26 5 6 -41 35 -72 47 -14 5 -25 14 -25 20 0 5 -6 10
-14 10 -8 0 -17 7 -20 16 -7 18 -9 468 -2 547 l4 47 -52 2 c-65 2 -77 3 -98
12 -9 4 -22 5 -27 1 -6 -3 -20 -1 -32 6 -19 10 -21 9 -16 -5 4 -9 4 -16 2 -16
-8 0 -45 34 -45 41 0 7 75 1 130 -10 20 -5 44 -5 54 -1 21 7 -249 60 -329 64
-16 1 -35 4 -41 8 -20 13 -24 -5 -8 -30 16 -24 16 -25 -2 -18 -11 4 -57 12
-104 17 -47 5 -103 11 -125 14 -22 3 -125 14 -230 25 -104 11 -214 23 -243 26
-49 6 -106 33 -243 119 -9 5 -40 23 -70 39 -30 16 -85 48 -124 71 -250 149
-314 185 -332 185 -23 0 -50 26 -39 37 4 4 10 3 14 -3 4 -6 20 -14 36 -18 28
-7 40 3 213 176 104 104 183 192 183 202 0 11 -5 16 -14 13 -8 -3 -22 1 -33 8
-24 19 -45 18 -66 -2z m-357 -364 c0 -6 -4 -7 -10 -4 -5 3 -10 11 -10 16 0 6
5 7 10 4 6 -3 10 -11 10 -16z m-877 -94 c-3 -9 -8 -14 -10 -11 -3 3 -2 9 2 15
9 16 15 13 8 -4z m-13 -35 c0 -5 -5 -10 -11 -10 -5 0 -7 5 -4 10 3 6 8 10 11
10 2 0 4 -4 4 -10z m-660 -340 c0 -5 -8 -10 -17 -10 -15 0 -16 2 -3 10 19 12
20 12 20 0z m3156 -137 c0 -12 -3 -21 -6 -21 -16 1 -18 -5 -10 -34 9 -31 8
-32 -6 -13 -8 11 -12 30 -9 42 4 16 1 21 -8 17 -12 -4 -15 19 -8 59 3 18 48
-30 47 -50z m29 31 c30 -32 30 -30 6 -37 -13 -3 -18 0 -15 8 3 6 -2 18 -11 25
-15 12 -20 30 -10 30 3 0 17 -12 30 -26z m30 16 c3 -5 2 -10 -4 -10 -5 0 -13
5 -16 10 -3 6 -2 10 4 10 5 0 13 -4 16 -10z m63 -20 c31 -41 28 -54 -8 -35
-29 15 -31 15 -39 -6 -5 -14 -10 -18 -15 -11 -3 6 -2 13 3 17 6 3 8 12 5 20
-4 10 0 12 18 8 19 -5 21 -3 11 8 -7 7 -13 17 -13 21 0 17 17 7 38 -22z m130
-36 c5 3 9 -1 9 -9 0 -10 -5 -11 -17 -5 -10 5 -19 7 -22 5 -2 -2 -4 6 -5 18
-2 21 -1 21 12 3 7 -10 18 -16 23 -12z m-3429 -47 c8 -10 7 -14 -2 -14 -8 0
-14 6 -14 14 0 7 1 13 2 13 2 0 8 -6 14 -13z m1 -102 c0 -8 -4 -15 -9 -15 -13
0 -22 16 -14 24 11 11 23 6 23 -9z m-426 -731 c3 -8 2 -12 -4 -9 -6 3 -10 10
-10 16 0 14 7 11 14 -7z m1037 -469 c28 -52 54 -95 59 -95 4 0 31 38 59 85 29
46 57 87 62 90 19 12 26 -44 21 -175 -4 -127 -11 -158 -35 -143 -4 3 -7 46 -5
96 2 76 0 92 -12 92 -8 0 -19 -9 -25 -20 -17 -33 -49 -80 -59 -87 -16 -11 -34
10 -63 69 -15 29 -31 52 -37 50 -7 -2 -12 -41 -14 -96 -2 -81 -5 -92 -20 -89
-15 3 -17 19 -15 147 2 209 9 215 84 76z m470 28 c6 -21 22 -60 35 -88 36 -79
74 -173 74 -185 0 -27 -27 -5 -43 35 -16 37 -24 45 -45 45 -15 0 -50 3 -79 6
l-52 7 -22 -47 c-21 -42 -49 -62 -49 -35 0 23 144 299 156 299 7 0 18 -17 25
-37z m394 3 c30 -10 50 -45 35 -60 -8 -8 -15 -6 -28 10 -28 34 -75 48 -108 32
-63 -30 -90 -111 -60 -181 29 -69 90 -90 144 -50 51 38 37 93 -24 93 -25 0
-34 4 -34 16 0 13 7 15 31 10 17 -3 44 -6 60 -6 28 0 29 -1 29 -53 0 -61 -22
-90 -80 -107 -113 -33 -202 91 -159 221 29 85 94 110 194 75z m326 -27 c85
-60 71 -241 -21 -279 -26 -11 -145 -9 -156 3 -7 7 -5 287 2 299 10 16 146 -2
175 -23z m189 -59 c0 -80 5 -84 96 -78 l49 3 3 60 c3 62 16 90 31 67 10 -17 2
-284 -9 -296 -20 -20 -32 8 -27 59 3 33 1 57 -6 64 -16 16 -137 15 -138 -1 -1
-7 -3 -35 -4 -61 -3 -52 -8 -63 -25 -52 -11 7 -14 280 -3 298 2 4 11 7 19 7
11 0 14 -16 14 -70z m481 29 c42 -30 59 -69 59 -140 0 -76 -24 -121 -78 -142
-79 -31 -160 13 -181 100 -16 61 7 141 50 177 39 33 107 36 150 5z m355 -26
c66 -49 71 -183 9 -248 -29 -31 -38 -35 -83 -35 -46 0 -55 4 -93 39 l-41 40 4
81 c3 80 4 83 41 117 34 30 44 34 85 32 31 -2 58 -11 78 -26z m219 -78 c22
-46 45 -84 52 -85 6 0 32 36 58 80 48 82 60 93 67 63 9 -41 -7 -276 -19 -280
-9 -3 -13 21 -15 89 -2 55 -7 92 -13 91 -5 -1 -21 -25 -35 -52 -34 -68 -52
-66 -91 10 -16 34 -33 58 -37 54 -4 -4 -9 -46 -12 -93 -7 -123 -25 -106 -27
26 -2 123 5 182 21 182 6 0 29 -38 51 -85z m299 -201 c8 -21 -1 -34 -25 -34
-12 0 -19 7 -19 18 0 34 33 45 44 16z m-4039 -12 c-3 -3 -11 0 -18 7 -9 10 -8
11 6 5 10 -3 15 -9 12 -12z m20 -32 c-3 -5 -11 -10 -16 -10 -6 0 -7 5 -4 10 3
6 11 10 16 10 6 0 7 -4 4 -10z m110 -130 c3 -6 -1 -7 -9 -4 -18 7 -21 14 -7
14 6 0 13 -4 16 -10z m2662 -312 c-3 -8 -6 -5 -6 6 -1 11 2 17 5 13 3 -3 4
-12 1 -19z m-2527 -118 c0 -5 -2 -10 -4 -10 -3 0 -8 5 -11 10 -3 6 -1 10 4 10
6 0 11 -4 11 -10z m364 -885 c-4 -8 -10 -15 -15 -15 -4 0 -6 7 -3 15 4 8 10
15 15 15 4 0 6 -7 3 -15z"/>
<path d="M11976 9817 c3 -10 9 -15 12 -12 3 3 0 11 -7 18 -10 9 -11 8 -5 -6z"/>
<path d="M9855 8380 c-36 -71 -32 -83 33 -86 62 -3 72 9 49 59 -8 17 -17 41
-19 52 -7 40 -36 28 -63 -25z"/>
<path d="M10506 8432 c-2 -4 -7 -57 -11 -118 -8 -127 -8 -128 64 -126 37 0 50
6 72 30 38 42 45 92 20 147 -12 27 -29 49 -43 54 -35 12 -97 21 -102 13z"/>
<path d="M11206 8385 c-54 -29 -75 -84 -56 -153 13 -50 39 -73 86 -77 67 -7
114 72 94 158 -8 38 -22 57 -57 75 -28 15 -32 15 -67 -3z"/>
<path d="M11563 8373 c-38 -7 -68 -61 -67 -118 1 -109 95 -159 159 -84 20 25
25 41 25 86 0 49 -4 59 -34 89 -34 34 -39 35 -83 27z"/>
<path d="M9610 10510 c0 -5 5 -10 10 -10 6 0 10 5 10 10 0 6 -4 10 -10 10 -5
0 -10 -4 -10 -10z"/>
<path d="M11480 10454 c-36 -13 -80 -24 -98 -24 -18 0 -31 -4 -27 -9 3 -6 -9
-8 -27 -6 -17 3 -37 0 -43 -5 -6 -5 -30 -11 -53 -12 -23 -2 -42 -5 -42 -7 0
-16 65 -101 79 -102 46 -5 59 -3 89 14 18 9 40 17 50 17 9 0 40 12 67 25 28
14 58 25 68 25 10 0 35 9 57 20 22 11 45 20 52 20 7 0 22 7 33 15 19 15 19 15
-1 36 -19 18 -26 19 -63 9 -26 -7 -47 -7 -58 -1 -13 6 -37 2 -83 -15z"/>
<path d="M9560 10450 c-6 -11 -8 -20 -6 -20 3 0 10 9 16 20 6 11 8 20 6 20 -3
0 -10 -9 -16 -20z"/>
<path d="M9465 10251 c-3 -5 -2 -12 3 -15 5 -3 9 1 9 9 0 17 -3 19 -12 6z"/>
<path d="M8813 9835 c0 -8 4 -12 9 -9 5 3 6 10 3 15 -9 13 -12 11 -12 -6z"/>
<path d="M8430 8619 c0 -5 -6 -7 -12 -3 -7 4 -9 3 -5 -1 13 -15 37 -14 37 1 0
8 -4 14 -10 14 -5 0 -10 -5 -10 -11z"/>
<path d="M8341 8494 c0 -11 3 -14 6 -6 3 7 2 16 -1 19 -3 4 -6 -2 -5 -13z"/>
<path d="M8340 7460 c-9 -6 -10 -10 -3 -10 6 0 15 5 18 10 8 12 4 12 -15 0z"/>
<path d="M8251 7216 c-8 -10 -9 -16 -1 -21 5 -3 13 1 16 10 9 22 -1 29 -15 11z"/>
<path d="M12580 6901 c0 -5 -20 -14 -44 -20 -25 -6 -47 -15 -50 -20 -3 -5 -36
-23 -73 -42 -81 -39 -78 -37 -69 -46 9 -9 266 118 260 129 -7 11 -24 10 -24
-1z"/>
<path d="M8728 6423 c7 -3 16 -2 19 1 4 3 -2 6 -13 5 -11 0 -14 -3 -6 -6z"/>
<path d="M10215 5600 c3 -5 8 -10 11 -10 2 0 4 5 4 10 0 6 -5 10 -11 10 -5 0
-7 -4 -4 -10z"/>
</g>
</svg>
